# xmcd CD database file
#
# Track frame offsets:
#	150
#	17061
#	34291
#	53268
#	73079
#	91055
#	108475
#	123692
#	140534
#	159571
#	177821
#	200093
#	216647
#	233921
#	251208
#	270613
#	287703
#	310775
#
# Disc length: 4353 seconds
#
# Revision: 1
# Processed by: cddbd v1.5.2PL0 Copyright (c) Steve Scherf et al.
# Submitted via: CDex 1.70beta2
#
DISCID=1010ff12
DTITLE=コンピレーション - ぼくらのオリジナルカラオケ　おニャン子・乙女塾編　Disk1
DYEAR=2004
DGENRE=JPop
TTITLE0=セーラー服を脱がさないで
TTITLE1=じゃあね
TTITLE2=夏休みは終わらない
TTITLE3=うしろゆびさされ組
TTITLE4=象さんのすきゃんてぃ
TTITLE5=冬のオペラグラス
TTITLE6=若草の招待状
TTITLE7=風のInvitation
TTITLE8=心もJUMPして！ 夏のイントロ
TTITLE9=シンデレラたちへの伝言
TTITLE10=テンダー・レイン
TTITLE11=蒼いメモリーズ
TTITLE12=もう君の名前も呼べない
TTITLE13=天使のボディーガード
TTITLE14=25セントの満月
TTITLE15=禁断のテレパシー
TTITLE16=抱いてくれたらいいのに
TTITLE17=嵐の素顔
EXTD=YEAR: 2004
EXTT0=
EXTT1=
EXTT2=
EXTT3=
EXTT4=
EXTT5=
EXTT6=
EXTT7=
EXTT8=
EXTT9=
EXTT10=
EXTT11=
EXTT12=
EXTT13=
EXTT14=
EXTT15=
EXTT16=
EXTT17=
PLAYORDER=
